<?xml version="1.0" encoding="UTF-8"?>
<svg xmlns="http://www.w3.org/2000/svg" version="1.1" viewBox="0 0 865.85 155.91">
  <defs>
    <style>
      .cls-1 {
        fill: currentColor;
      }
    </style>
  </defs>
  
  <g>
    <g id="Layer_1">
      <g>
        <path class="cls-1" d="M46.95,155.91c-11.15,0-20.46-3.24-27.93-9.72-7.47-6.48-12.78-15.39-15.93-26.75C-.06,108.09-.8,95.23.86,80.88c1.54-13.38,4.89-25.11,10.02-35.22,5.14-10.1,11.54-18.53,19.22-25.29,7.68-6.76,16.27-11.84,25.8-15.26,9.52-3.41,19.37-5.12,29.54-5.12,18.67,0,32.2,2.61,40.58,7.84,8.38,5.23,12.1,11.95,11.15,20.17-.74,6.41-3.03,12.05-6.87,16.93-3.84,4.88-9.03,7.32-15.58,7.32-4.46,0-8.62-.42-12.5-1.25-3.87-.84-7.83-1.64-11.84-2.4-4.02-.76-8.54-1.15-13.56-1.15-11.01,0-19.28,3.13-24.81,9.4-5.53,6.27-8.84,14.14-9.94,23.62-.89,7.67-.04,13.94,2.53,18.81,2.57,4.88,6.34,8.46,11.3,10.76s10.64,3.45,17.05,3.45c5.29,0,10.38-1.18,15.25-3.55,4.87-2.37,8.3-6.76,10.3-13.17h-10.24c-4.88,0-8.47-1.5-10.77-4.49-2.3-2.99-3.18-6.86-2.63-11.6.55-4.73,2.31-8.57,5.3-11.49,2.98-2.93,6.91-4.39,11.79-4.39h25.08c9.06,0,15.15,2.4,18.29,7.21,3.13,4.81,4.16,11.95,3.06,21.42l-4.51,39.08c-.84,7.25-3.43,12.75-7.76,16.51-4.34,3.76-9.71,5.64-16.12,5.64-6.83,0-11.98-1.88-15.44-5.64-3.47-3.76-4.78-9.26-3.95-16.51l1.5-12.96h-3.76c-1.46,12.68-5.74,21.91-12.81,27.69-7.08,5.78-15.98,8.67-26.71,8.67h-1.88Z"/>
        <path class="cls-1" d="M206.7,155.28c-14.91,0-27.14-3.27-36.69-9.82-9.56-6.55-16.31-15.6-20.27-27.17-3.96-11.56-5.07-24.87-3.33-39.92,1.72-14.91,5.9-28.18,12.54-39.81,6.64-11.63,15.49-20.76,26.57-27.38,11.07-6.62,24.06-9.93,38.98-9.93s27.1,3.31,36.58,9.93c9.48,6.62,16.19,15.75,20.14,27.38,3.95,11.63,5.07,24.91,3.34,39.81-1.74,15.05-5.92,28.36-12.55,39.92-6.63,11.57-15.44,20.62-26.44,27.17-11,6.55-23.95,9.82-38.86,9.82ZM173.12,75.03c-.5,4.32.08,8.4,1.72,12.23,1.65,3.83,5.4,6.9,11.27,9.2,5.86,2.3,14.86,3.45,26.98,3.45s21.35-1.15,27.67-3.45c6.33-2.3,10.76-5.36,13.29-9.2,2.53-3.83,4.05-7.91,4.55-12.23.52-4.46-.07-8.46-1.75-12.02-1.68-3.55-5.42-6.41-11.24-8.57-5.81-2.16-14.78-3.24-26.9-3.24s-21.37,1.08-27.75,3.24c-6.38,2.16-10.82,5.02-13.32,8.57-2.5,3.55-4.01,7.56-4.52,12.02Z"/>
        <path class="cls-1" d="M386.51,154.66c-6.97,0-12.23-2.12-15.77-6.38-3.55-4.25-5.07-9.79-4.56-16.62.81-11.84-1.18-20.24-5.97-25.18-4.79-4.94-11.65-7.42-20.57-7.42h-4.18l-3.86,33.44c-.84,7.25-3.42,12.75-7.76,16.51-4.34,3.76-9.71,5.64-16.12,5.64-6.83,0-11.98-1.88-15.44-5.64-3.47-3.76-4.78-9.26-3.95-16.51l3.4-29.47c1.71-14.77,5.2-25.98,10.47-33.65,5.27-7.66,11.52-13.17,18.73-16.51l-.59-3.97h-3.34c-6.41,0-11.23-2.05-14.44-6.17-3.22-4.11-4.56-9.72-4.01-16.82.66-6.97,3.2-12.61,7.6-16.93,4.4-4.32,9.8-6.48,16.21-6.48h53.29c14.91,0,26.54,3.62,34.9,10.87,8.36,7.25,11.62,18.81,9.79,34.69-.95,8.22-3.14,15.08-6.56,20.59-3.42,5.51-7.46,9.72-12.12,12.64-4.66,2.93-9.39,4.67-14.19,5.23l-.31,2.72c8.4,2.09,15.01,6.69,19.83,13.79,4.82,7.11,6.54,16.65,5.16,28.63-.89,7.67-3.61,13.41-8.16,17.24-4.55,3.83-10.38,5.75-17.49,5.75ZM338.1,67.09c-.35,3.07-.03,5.09.97,6.06,1,.98,3.04,1.46,6.1,1.46h19.65c5.85,0,10.25-1.32,13.21-3.97,2.95-2.65,4.7-6.34,5.25-11.08.56-4.88-.33-8.64-2.67-11.29-2.34-2.64-6.44-3.97-12.29-3.97h-19.65c-3.07,0-5.2.42-6.42,1.25-1.21.84-2,2.86-2.37,6.06l-1.79,15.47Z"/>
        <path class="cls-1" d="M440.79,155.08c-6.41,0-11.41-1.95-15-5.85-3.59-3.9-5.04-8.85-4.35-14.84l12.77-110.56c.71-6.13,3.29-11.29,7.74-15.47,4.45-4.18,9.95-6.27,16.5-6.27,6.96,0,12.2,2.06,15.69,6.17,3.5,4.11,4.9,9.16,4.21,15.15l-12.82,110.98c-.69,5.99-3.39,10.94-8.09,14.84-4.7,3.9-10.26,5.85-16.66,5.85Z"/>
        <path class="cls-1" d="M491.81,22.78c.74-6.41,3.3-11.39,7.68-14.94,4.38-3.55,9.71-5.33,15.98-5.33s11.57,1.78,15.06,5.33c3.49,3.55,4.87,8.54,4.13,14.94l-10.28,89.03c-.31,2.65.18,4.49,1.45,5.54,1.27,1.04,3.61.66,7.03-1.15,7.43-4.04,14.01-7.28,19.72-9.72,5.71-2.44,11.85-3.66,18.4-3.66,9.06,0,15.61,2.37,19.66,7.11,4.05,4.74,5.63,10.94,4.75,18.6-.95,8.22-4.16,14.56-9.62,19.02-5.46,4.46-13.63,6.69-24.49,6.69h-43.05c-9.2,0-16.74-1.08-22.62-3.24-5.88-2.16-10.06-6.09-12.54-11.81-2.47-5.71-3.09-14-1.83-24.87l10.57-91.54Z"/>
        <path class="cls-1" d="M616.16,22.78c.74-6.41,3.3-11.39,7.68-14.94,4.38-3.55,9.71-5.33,15.98-5.33s11.57,1.78,15.06,5.33c3.49,3.55,4.87,8.54,4.13,14.94l-10.28,89.03c-.31,2.65.18,4.49,1.45,5.54,1.27,1.04,3.61.66,7.03-1.15,7.43-4.04,14.01-7.28,19.72-9.72,5.71-2.44,11.85-3.66,18.4-3.66,9.06,0,15.61,2.37,19.66,7.11,4.05,4.74,5.63,10.94,4.75,18.6-.95,8.22-4.16,14.56-9.62,19.02-5.46,4.46-13.63,6.69-24.49,6.69h-43.05c-9.2,0-16.74-1.08-22.62-3.24-5.88-2.16-10.06-6.09-12.54-11.81-2.47-5.71-3.09-14-1.83-24.87l10.57-91.54Z"/>
        <path class="cls-1" d="M742.21,154.66c-9.17-1.39-14.74-5.68-16.7-12.85-1.96-7.17-.35-16.27,4.82-27.27l36.64-78.37c3.34-7.24,6.95-13.44,10.82-18.6,3.87-5.15,8.44-9.12,13.71-11.91,5.27-2.79,11.59-4.18,18.98-4.18,11.15,0,19.19,3.07,24.12,9.2,4.93,6.13,8.66,14.63,11.16,25.5l18.33,78.37c2.63,11.01,2.31,20.1-.96,27.27-3.27,7.18-9.72,11.46-19.35,12.85-7.78.97-14.32.07-19.64-2.72-5.32-2.79-8.18-7.31-8.57-13.58-.35-4.18-.06-7.66.89-10.45.95-2.79,1.8-5.02,2.55-6.69.58-1.39.77-2.75.58-4.08-.2-1.32-1.2-1.98-3.01-1.98h-38.87c-1.81,0-2.97.66-3.47,1.98-.5,1.33-.56,2.68-.16,4.08.36,1.67.66,3.9.9,6.69.23,2.79-.24,6.27-1.42,10.45-1.84,6.27-5.64,10.8-11.39,13.58-5.76,2.79-12.41,3.69-19.96,2.72ZM815.98,85.9l-6.93-34.07c-.12-1.39-.45-2.47-.98-3.24-.54-.76-1.51-1.15-2.9-1.15s-2.45.39-3.16,1.15c-.72.77-1.36,1.85-1.94,3.24l-14.59,34.07h30.51Z"/>
      </g>
    </g>
  </g>
</svg>