<?xml version="1.0" encoding="UTF-8"?>
<svg xmlns="http://www.w3.org/2000/svg" version="1.1" viewBox="0 0 865.85 155.91">
  <defs>
    <style>
      .cls-1 {
        fill: currentColor;
      }
    </style>
  </defs>
  
  <g>
    <g id="Layer_1">
      <g>
        <path d="M253.04,154.26c-.55-.07-.67-.39-.76-.71-1.01-3.56-3.12-6.62-5.95-9.36-.84-.81-1.6-1.69-2.55-2.39-1.43-1.04-3-1.95-4.52-2.91-.44-.28-.9-.55-1.37-.79-2.14-1.13-4.5-1.84-6.9-2.41-1.36-.33-2.81-.38-4.22-.54-.39-.04-.82.03-1.19-.06-.35-.09-.82-.28-.93-.53-.1-.22.14-.64.37-.86,1.03-.97,2.16-1.87,3.18-2.86,1.54-1.49,2.79-3.15,3.89-4.89.39-.61.72-1.25,1.16-1.83,1.6-2.11,2.01-4.54,2.72-6.89.32-1.06.7-2.11.99-3.17.28-1.04.56-2.08.72-3.14.31-1.95.53-3.91.79-5.86.41-3.1.85-6.2.89-9.32.02-1.64,0-3.28-.02-4.92-.03-1.93-.05-3.87-.15-5.8-.05-1.03-.28-2.05-.38-3.07-.29-2.79-.49-5.58-.85-8.36-.43-3.3-.94-6.6-2.28-9.75-.97-2.28-1.92-4.57-3.44-6.63-.65-.88-1.38-1.72-2.2-2.49-1.03-.97-2.14-1.9-3.52-2.53-.79-.36-1.62-.68-2.6-1.09.39-.14.61-.26.85-.31,3.04-.62,5.31-2.25,7.35-4.11,1.68-1.53,3.03-3.28,4.17-5.13,1.22-2,2.17-4.09,2.61-6.33.21-1.08.55-2.16.61-3.25.11-2.21,0-4.41-.55-6.6-.27-1.11-.9-2.05-1.34-3.07-.7-1.62-2.05-2.85-3.32-4.08-1.8-1.75-4.03-3.1-6.65-3.92-1.95-.61-3.9-1.17-5.96-1.51-1.43-.24-2.8-.18-4.21-.2-1.16-.02-2.13.34-3.18.69-.03-.09-.12-.19-.09-.25.56-1.17,1.38-2.17,2.75-2.75,1.55-.66,3.1-1.33,4.71-1.89.9-.31,1.9-.43,2.87-.58.89-.14,1.8-.26,2.71-.3.66-.03,1.34.05,2,.12,1.29.15,2.59.28,3.85.53.89.18,1.74.53,2.59.84.98.35,1.97.7,2.92,1.11.79.35,1.56.75,2.27,1.21,1.42.91,2.83,1.85,4.17,2.84,1.16.86,2.28,1.76,3.32,2.72,1.62,1.49,2.81,3.23,3.89,5.03.99,1.64,2.03,3.25,2.93,4.93.45.84.67,1.78.9,2.7.41,1.67.8,3.35,1.1,5.04.23,1.31.31,2.65.46,4.08.19-.21.36-.37.48-.55,1.58-2.4,3.09-4.83,4.76-7.19,1.06-1.49,2.39-2.84,4.01-3.96.76-.53,1.49-1.1,2.18-1.68,2.27-1.9,4.83-3.47,7.51-4.94,3.21-1.77,6.75-2.75,10.43-3.49,1.03-.21,2.01-.61,3.02-.88.59-.16,1.21-.33,1.83-.36,2.2-.12,4.4-.23,6.6-.25.77,0,1.54.29,2.32.36,2.22.2,4.33.72,6.36,1.47.07.03.14.07.22.09,2.72.53,4.54,2.18,6.51,3.67,1.7,1.28,2.98,2.86,4.46,4.3,1.29,1.25,1.88,2.74,2.46,4.25.63,1.63,1.23,3.26,1.72,4.92.32,1.09.44,2.23.63,3.35.35,2.1.23,4.22.3,6.34.03.93.03,1.87-.05,2.8-.13,1.55-.31,3.1-.47,4.65-.14,1.35-.68,2.67-1.02,4-.15.58-.21,1.18-.41,1.74-.25.67-.64,1.31-.91,1.98-.34.87-.63,1.76-.93,2.65-.58,1.73-1.46,3.36-2.41,4.95-.67,1.13-1.49,2.19-2.26,3.27-.71,1-1.41,2.01-2.16,2.99-.31.41-.78.73-1.13,1.12-.93,1.06-1.84,2.14-2.76,3.22-.34.4-.64.83-1.01,1.21-1.26,1.27-2.54,2.53-3.82,3.79-.56.55-.83,1.09-.62,1.9.94,3.55,1.57,7.16,2.9,10.64.48,1.27.94,2.54,1.37,3.82.63,1.87,1.63,3.61,2.55,5.39,1.94,3.7,5.22,6.28,9.37,8.11,2.36,1.04,4.85,1.88,7.5,2.26,1.71.25,3.45.32,5.39.48.31.28.04.59-.37.93-1.74,1.47-3.47,2.95-5.19,4.43-1.26,1.09-2.21,2.37-3.04,3.71-1.46,2.35-2.74,4.78-3.42,7.38-.5,1.89-1.07,3.79-.94,5.76.15,2.18.53,4.31,1.53,6.35.45.92.65,1.95,1.21,2.82,1.15,1.79,2.3,3.6,3.98,5.1.62.55.59.65,0,1.35-.25-.14-.52-.27-.74-.43-2.36-1.74-4.64-3.57-7.08-5.22-2-1.34-4.05-2.61-6.33-3.67-2.16-1.01-4.47-1.52-6.74-2.15-1.48-.41-3.12-.39-4.69-.54-.82-.08-1.65-.14-2.47-.13-1.11.02-2.22.09-3.32.18-.62.05-1.24.16-1.86.23-1.95.24-3.75.85-5.46,1.65-.36-.11-.69-.21-1.08-.33.1-.69.49-1.23,1.01-1.75,1.06-1.08,2.15-2.14,3.11-3.27,1.19-1.41,2.3-2.87,3.36-4.35,1.05-1.48,1.59-3.14,2.03-4.8.35-1.34.54-2.7.81-4.06.35-1.78.09-3.53-.21-5.29-.45-2.61-1.2-5.17-1.93-7.73-.44-1.52-.62-3.1-1.09-4.62-.82-2.68-1.34-5.42-2.42-8.05-.72-1.76-1.13-3.61-1.72-5.55-.37.16-.7.31-1.03.47-1.39.64-2.73,1.37-4.18,1.91-1.92.71-3.88,1.34-5.88,1.84-1.12.28-2.36.18-3.52.35-1.72.25-3.37-.21-5.06-.3-1.35-.07-2.7-.49-4.02-.83-2.02-.53-3.81-1.46-5.54-2.46-.65-.37-1.17-.9-1.75-1.36-.37-.29-.75-.58-1.23-.96-.16.56-.34,1-.41,1.46-.39,2.6-.48,5.21-.26,7.83.26,3.11.54,6.22.94,9.32.23,1.76.71,3.49,1.08,5.23.53,2.46,1.71,4.73,3.05,6.93,1.08,1.78,2.82,3.16,4.72,4.35,1.3.82,2.62,1.62,4.23,1.99.32.07.6.29.88.43-.12.96-1.05,1.17-1.72,1.46-2.53,1.11-4.82,2.46-6.84,4.16-1.7,1.43-3.1,3.05-4.44,4.71-1.91,2.35-3.19,4.94-3.91,7.72-.41,1.57-.77,3.15-1.11,4.73-.13.62-.15,1.26-.24,1.88-.02.12-.13.22-.2.34ZM261.7,68.38c.94-.66,1.61-1.17,2.32-1.63,1.47-.96,3.13-1.63,4.85-2.23,2.9-1.01,5.9-1.53,9.02-1.66,1.13-.05,2.3-.11,3.4.08,2.16.38,4.31.84,6.4,1.42,2.56.7,4.83,1.86,6.74,3.49.28.24.58.47.91.65.92.49,1.52.42,2.18-.29.8-.87,1.56-1.78,2.32-2.68,1.42-1.71,2.45-3.6,3.26-5.56.83-2.01,1.5-4.08,2.05-6.16.37-1.4.48-2.85.55-4.28.06-1.23-.15-2.46-.18-3.69-.04-2.32-1.08-4.39-2.34-6.36-1.18-1.84-3.28-2.94-5.53-3.72-1.38-.48-2.87-.73-4.33-1.05-2.7-.6-5.41-.57-8.09.04-1.21.28-2.36.75-3.54,1.12-.44.14-.94.2-1.34.41-2.23,1.16-4.34,2.49-6.17,4.07-1.71,1.47-3.2,3.13-4.7,4.77-.84.92-1.62,1.91-2.21,2.96-.88,1.53-1.59,3.13-2.32,4.72-1.25,2.73-1.77,5.62-2.48,8.46-.48,1.92-.57,3.91-.81,5.87-.04.35.02.7.04,1.25ZM285.29,79.7c-.6-.92-1.18-1.94-1.91-2.88-.72-.91-1.43-1.89-2.6-2.44-1.64-.78-3.35-1.37-5.3-.83-.17.05-.38,0-.58,0-1.65.1-3.35.06-4.77.95-.59.37-1.05.91-1.87.97-.07,0-.17.06-.19.11-.22.6-.69,1.02-1.16,1.51-.94.97-.91,2.29-1.02,3.51-.02.23.05.46.11.69.35,1.27,1.29,2.16,2.51,2.94.67.43,1.43.49,2.15.73.65.22,1.36.36,2.06.4,1.26.08,2.49-.07,3.73-.33,1.55-.32,3.07-.7,4.37-1.46,1.74-1.02,3.35-2.18,4.47-3.89Z"/>
        <path d="M.06,43.77c1.97-.07,3.93-.15,5.9-.21,1.5-.05,3.02.03,4.5-.13,1.64-.18,3.28-.48,4.88-.87,3.27-.8,6.48-1.76,9.57-2.96.89-.34,1.7-.85,2.56-1.25,1.49-.7,3.02-1.34,4.46-2.1,1.12-.59,2.14-1.33,3.2-2.01.5-.32,1.01-.65,1.5-.98.79-.53,1.55-1.1,2.38-1.6,1.59-.96,2.97-2.12,4.33-3.28,1.32-1.12,2.64-2.25,3.77-3.53,1.56-1.76,3.09-3.52,4.53-5.36,1.09-1.38,2.11-2.8,3.02-4.26.82-1.31,1.79-2.62,2.22-4.03.59-1.93,1.7-3.72,1.97-5.75.21-1.6.91-3.15,1.41-4.81.11,0,.37-.01.51-.02.33.34.62.58.84.86.12.16.18.37.22.56.65,3.12,1.23,6.26,1.97,9.37.41,1.73,1.09,3.42,1.65,5.12.01.03.03.06.04.1.4,2.05,1.68,3.77,2.82,5.56.92,1.44,1.67,2.95,2.62,4.37.87,1.3,1.91,2.52,2.89,3.78.87,1.12,1.76,2.23,2.63,3.34.04.06.06.13.11.18,1.37,1.15,2.71,2.32,4.11,3.44.88.71,1.81,1.37,2.77,2.01,1.11.74,2.16,1.61,3.42,2.09,1.77.68,3.68,1.29,5.59,1.5,1.99.22,4.11.37,6.08-.42.41-.17.91-.17,1.37-.24,2.06-.3,3.35-1.54,4.63-2.75.77-.73,1.46-1.53,2.33-2.45.1.41.2.62.2.83.01,1.99-.53,3.86-1.36,5.73-.57,1.28-1.53,2.3-2.29,3.44-.46.69-.87,1.41-1.37,2.08-.72.97-1.66,1.75-2.93,2.25-.56.22-1.04.61-1.55.91-1.36.8-2.85,1.38-4.37,1.95-1.53.58-3.15.86-4.72,1.27-.75.19-1.55.47-2.38.21-.14-.04-.32-.05-.47-.03-1.66.24-3.3-.06-4.95-.12-1.09-.04-2.07-.37-3.08-.64-1.87-.5-3.74-1.01-5.59-1.57-.63-.19-1.28-.31-1.86-.68-.68-.43-1.54-.66-2.33-.96-.98-.37-1.94-.79-2.95-1.08-.78-.22-1.64-.22-2.44-.41-2.69-.66-5.37-.46-8.02.05-2.53.49-4.78,1.38-6.65,3.03-1.77,1.56-3.17,3.26-4.37,5.15-1.32,2.08-2.23,4.24-2.86,6.52-.49,1.76-.83,3.54-1.08,5.33-.16,1.16-.1,2.34-.1,3.51,0,1.46.02,2.92.52,4.33.87,2.45,1.7,4.95,3.59,7.01,1.22,1.33,2.38,2.77,4.3,3.55.41.17.69.54,1.07.78,1.45.91,2.88,1.84,4.39,2.68.59.33,1.36.44,2.19.7-1.63.74-3.09,1.37-4.52,2.05-1.78.84-2.96,2.21-4.19,3.52-.42.44-.87.87-1.18,1.36-.37.58-.6,1.22-.91,1.82-.25.48-.54.94-.8,1.42-.18.33-.38.61-.27,1.04.08.31-.27.69-.27,1.03.03,1.9-.03,3.82.2,5.7.23,1.89.6,3.78,1.48,5.56.2.4.19.87.4,1.26.57,1.1,1.2,2.18,1.82,3.26.18.32.4.64.61.95,1.33,1.99,3.25,3.59,5.04,5.26.45.42,1.2.62,1.85.87,1.18.46,2.37.91,3.58,1.32,2.4.8,4.77,1.65,7.36,1.94,3.31.37,6.55.23,9.77-.5,2.07-.47,4.14-.95,6.02-1.86,2.25-1.1,4.33-2.37,5.59-4.36.82-1.29,1.69-2.57,2.28-3.94.44-1.03.73-2.16.45-3.3-.05-.19-.05-.4,0-.59.37-1.64.69-3.27.15-4.93-.12-.38-.08-.8-.2-1.19-.19-.6-.44-1.19-.67-1.78-.16-.41-.3-.82-.48-1.22-.69-1.47-2.3-2.24-3.54-3.28-.28-.23-.62-.41-.88-.65-1.03-.97-2.35-1.56-3.74-2.06-.36-.13-.74-.24-1.05-.43-1.31-.82-2.91-.96-4.4-1.39-2.4-.7-4.9-1.27-6.95-2.58-1.85-1.19-2.35-1.21-2.87-2.92.82.09,1.59.23,2.36.25,1.62.04,3.25.11,4.87.01,2.54-.15,5.06-.47,7.51-1.06,1.02-.24,1.98-.67,2.96-1.03,1.45-.53,2.92-1.04,4.35-1.62,2.31-.95,4.59-1.94,6.87-2.94,1.48-.65,2.89-1.4,4.4-1.99,1.11-.43,2.31-.74,3.5-1,2-.44,4.04-.74,6.03-1.21,1.54-.36,3.06-.2,4.58-.05,1.44.14,2.89.29,4.29.56,1.37.27,2.7.69,4.03,1.09.77.23,1.52.54,2.24.86.76.34,1.57.65,2.22,1.11,1.05.75,2.28,1.36,2.98,2.42.13.2.21.42.35.69-.69,0-1.27.03-1.86,0-2.94-.16-5.81.17-8.44,1.3-1.83.78-3.59,1.72-5.25,2.74-1.19.73-2.18,1.69-3.15,2.66-1.35,1.34-2.36,2.84-3.32,4.35-.72,1.13-1.07,2.44-1.54,3.67-.2.53-.26,1.11-.47,1.64-.54,1.37-.66,2.77-.44,4.17.28,1.79.63,3.57,1.1,5.33.36,1.37,1,2.68,1.43,4.03.41,1.29,1.2,2.51,1.15,3.91-.01.28.21.56.25.85.31,2.32.08,4.62-.49,6.88-.51,2.06-1.53,3.99-2.75,5.83-.26.4-.72.7-1.06,1.07-.7.76-1.44,1.51-2.05,2.32-.73.98-1.71,1.75-2.66,2.57-2.05,1.76-4.58,2.91-7.1,4.09-1.79.83-3.66,1.34-5.63,1.76-1.62.35-3.25.49-4.87.76-2.51.41-4.99.27-7.48.14-.75-.04-1.49-.2-2.22-.34-3.18-.62-6.27-1.42-9.19-2.69-1.36-.59-2.85-1.01-4.33-1.38-2.54-.64-5.11-1.21-7.68-1.76-3.56-.77-7.14-.77-10.78-.4-2.68.27-5.29.79-7.88,1.37-2.48.56-4.96,1.22-7.16,2.35-2.71,1.38-5.49,2.67-7.92,4.4-.15.11-.3.23-.47.31-.41.2-.82.27-1.2-.05-.41-.35-.21-.68.07-.98,3.35-3.54,5.58-7.58,7.18-11.85.89-2.39,1.59-4.86,1.98-7.33.39-2.44.41-4.95.33-7.42-.05-1.6-.63-3.18-.84-4.77-.27-2.05-.95-4-1.84-5.9-.9-1.92-1.92-3.79-2.91-5.68-1.5-2.86-3.55-5.44-6.1-7.7-2.06-1.82-4.32-3.48-6.97-4.67-.89-.4-1.94-.57-2.91-.85-.25-.07-.49-.15-1.01-.32.58-.23.9-.42,1.25-.49,1.55-.33,2.97-.9,4.33-1.58,1.33-.67,2.29-1.65,3.14-2.7.93-1.15,1.87-2.29,2.68-3.5.78-1.15,1.46-2.35,2.09-3.56.82-1.59,1.6-3.2,2.28-4.83.42-1.03.67-2.11.92-3.18.25-1.08.46-2.17.61-3.27.09-.69.1-1.39.03-2.08-.25-2.46-.41-4.94-1.12-7.36-.59-2.01-1.48-3.94-2.57-5.77-.69-1.17-1.22-2.43-2.27-3.47-.79-.77-1.37-1.69-2.07-2.54-.18-.22-.43-.4-.67-.58-1.19-.88-2.32-1.83-3.6-2.62-1.27-.78-2.67-1.42-4.05-2.07-.99-.46-2.04-.83-3.07-1.24.02-.06.04-.13.06-.19Z"/>
        <path d="M220.62,50.45c-1.33.91-2.58,1.69-3.73,2.56-1.05.79-2,1.67-3,2.52-1.23,1.04-2.3,2.19-3.07,3.5-1.03,1.76-1.75,3.62-2.59,5.44-.75,1.65-1.03,3.39-1.8,5.02-.46.99-.33,2.18-.42,3.28-.09,1.07-.12,2.14-.2,3.22-.04.47.31.98-.2,1.41-.06.05-.04.2-.03.29.17,1.9.34,3.79.52,5.69.02.2.05.41.14.59.9,1.75,1.05,3.67,1.75,5.46.66,1.7,1.44,3.35,2.56,4.89,1.28,1.76,2.79,3.36,4.25,5,.53.59,1.07,1.16,1.55,1.78.98,1.27,2.28,2.3,3.69,3.18,1.73,1.08,3.16,2.4,4.65,3.68.12.11.14.3.23.51-1.11.35-2.2.66-3.24,1.04-1.89.68-3.76,1.41-5.64,2.11-.83.31-1.71.52-2.51.87-1.39.62-2.76,1.28-4.1,1.98-1.35.7-2.68,1.43-3.96,2.22-1.65,1.03-3.24,2.12-4.83,3.21-2.53,1.71-4.56,3.85-6.78,5.82-1.15,1.02-2.24,2.1-3.09,3.36-.81,1.19-2,2.19-2.99,3.3-.54.61-.99,1.27-1.49,1.91-.15.19-.34.36-.51.55-.26.29-.56.57-.78.89-.65.94-1.26,1.9-1.92,2.83-.59.83-1.32,1.57-1.67,2.55-.33.91-1,1.74-1.57,2.57-1.59,2.33-2.77,4.82-3.92,7.32-.71,1.55-1.13,3.2-1.7,4.83-.66.19-1.03-.05-1.24-.58-.98-2.43-1.88-4.9-2.99-7.29-.85-1.83-1.97-3.58-2.99-5.36-.36-.63-.8-1.24-1.17-1.87-.71-1.23-1.69-2.31-2.6-3.44-1.79-2.25-3.9-4.26-6.09-6.22-1.13-1.01-2.22-2.08-3.5-2.95-2.4-1.61-4.73-3.29-7.23-4.81-2.59-1.57-5.36-2.87-8.1-4.22-2.64-1.29-5.38-2.46-8.16-3.52-1.53-.59-3.24-.86-4.87-1.26-.68-.17-1.36-.38-2.06-.47-1.61-.23-3.23-.37-4.84-.6-1.01-.14-2-.38-2.99-.58-.1-.02-.17-.12-.38-.27.86-.44,1.65-.85,2.45-1.25,2.66-1.36,5.12-2.93,7.3-4.81,1.2-1.03,2.38-2.07,3.65-3.03,2.03-1.53,3.35-3.47,4.7-5.41.57-.82,1.36-1.56,1.76-2.43.38-.82,1.04-1.53,1.35-2.33.86-2.27,1.59-4.59,1.74-6.98.07-1.18.37-2.31.55-3.47.13-.84.08-1.69.1-2.54.02-1.02.08-2.05,0-3.07-.06-.72-.26-1.45-.5-2.15-.75-2.25-1.74-4.41-3.13-6.45-1.27-1.87-2.3-3.86-3.56-5.73-.99-1.46-2.05-2.93-3.34-4.2-1.43-1.41-2.93-2.79-4.62-4.02-2.51-1.82-5.2-3.39-8.18-4.59-.1-.04-.18-.13-.29-.22.26-.6.84-.79,1.49-.99,2.67-.82,5.35-1.63,7.98-2.54,2.22-.77,4.35-1.72,6.25-2.98.09-.06.22-.08.32-.13,1.29-.64,2.6-1.26,3.85-1.95.69-.38,1.3-.87,1.91-1.35.83-.64,1.53-1.45,2.47-1.94,1.05-.55,1.86-1.28,2.75-1.96,1.13-.85,2.15-1.8,3.23-2.7.56-.47,1.16-.9,1.68-1.39.28-.26.43-.61.64-.91.1-.14.19-.29.33-.39.93-.64,1.71-1.34,2.31-2.25.44-.66.86-1.43,1.69-1.9.13-.07.25-.18.33-.29,1.58-1.98,3.15-3.96,4.71-5.94.12-.15.09-.37.17-.55.18-.39.33-.76.7-1.12.61-.58,1.02-1.32,1.43-2.02.71-1.21,1.31-2.46,2.05-3.65.58-.94.97-1.94,1.47-2.9.66-1.24.87-2.55,1.34-3.82.33-.89.56-1.81.76-2.73.17-.79.32-1.56,1.17-2.15.13.1.26.28.44.33.7.2.81.65.82,1.18.02.8-.09,1.63.13,2.39.42,1.46.97,2.89,1.57,4.31.53,1.28,1.16,2.54,1.8,3.79.59,1.16,1.22,2.3,1.9,3.42.62,1.03,1.26,2.04,1.99,3.02,1.6,2.16,3.15,4.34,5.3,6.17.78.66,1.4,1.46,2.1,2.19.59.61,1.09,1.31,1.79,1.81.93.67,1.37,1.73,2.6,2.17.38.13.54.63.88.9,1,.79,2.04,1.55,3.07,2.32.35.26.67.55,1.05.78.98.58,1.98,1.14,2.96,1.71.12.07.2.2.3.3.89.93,1.97,1.73,3.14,2.34.95.5,1.77,1.08,2.64,1.64,1.12.73,2.27,1.46,3.52,2.01.86.38,1.76.69,2.59,1.12.4.21.77.45,1.18.64.45.21.91.46,1.4.52.58.08,1.07.2,1.49.55.15.12.41.16.63.22.38.1.82.12,1.12.31,1,.64,2.17,1,3.29,1.43,1.39.53,2.88.89,4.32,1.35.19.06.34.23.55.37ZM169.02,37.61c-.2.75-.32,1.49-.6,2.18-.51,1.26-1.06,2.51-1.7,3.72-.48.9-1.12,1.75-1.74,2.59-.54.73-1.11,1.45-1.76,2.12-1.47,1.52-3.05,2.97-4.46,4.53-1.35,1.5-2.86,2.84-4.71,3.87-.56.31-1.01.9-1.8.86-.59-.03-1.04.16-1.24.58-.22.48.02.88.5,1.24.53.39,1.04.83,1.43,1.32,1.16,1.46,2.22,2.98,3.39,4.44.91,1.14,1.38,2.45,2.01,3.69.38.76.75,1.54,1,2.34.5,1.61,1.03,3.23,1.35,4.88.36,1.84.66,3.72.68,5.58.03,2.2-.27,4.4-.43,6.6,0,.13-.02.27-.06.4-.31,1.2-.68,2.4-.93,3.61-.72,3.47-3.08,6.21-5.53,8.89-.72.78-1.06,1.68-1.7,2.51,1.27.75,2.45,1.41,3.6,2.13,1.2.75,2.4,1.51,3.53,2.32.86.62,1.62,1.35,2.42,2.02.78.65,1.65,1.25,2.34,1.97,1.06,1.1,2.27,2.09,3.22,3.29,1.45,1.83,2.91,3.64,4.01,5.64.37.68.86,1.32,1.33,1.96.1.14.36.25.57.27.13.01.4-.16.41-.27.14-.98.87-1.77,1.18-2.68.55-1.59,1.58-2.99,2.4-4.47.6-1.08,1.49-2.03,2.4-2.95.98-1,1.89-2.05,2.89-3.03,1.05-1.03,2.14-2.02,3.27-2.99,1.38-1.17,2.84-2.29,4.24-3.45.58-.48,1.12-.99,1.66-1.48-.07-.11-.1-.17-.15-.22-2.11-1.79-3.75-3.86-5.15-6.08-.24-.38-.54-.73-.86-1.06-1.17-1.17-1.73-2.6-2.27-4.01-.47-1.24-.74-2.52-1.16-3.77-.69-2.04-.98-4.1-.97-6.22,0-2.05.28-4.06.77-6.06.43-1.76.95-3.5,1.44-5.24.03-.09.1-.18.15-.27,1.11-2.01,2.17-4.03,3.35-6.01.51-.86,1.21-1.64,1.88-2.43.49-.59,1.06-1.14,1.64-1.75-.85-.34-1.62-.64-2.39-.95-1.74-.69-3.35-1.53-4.7-2.7-.99-.86-2.01-1.69-2.99-2.56-.81-.72-1.6-1.47-2.37-2.23-.81-.8-1.63-1.61-2.38-2.45-.49-.55-.87-1.16-1.28-1.76-.41-.6-.79-1.23-1.19-1.84-.48-.72-1.03-1.42-1.43-2.17-.53-1-1.03-2.03-1.38-3.09-.27-.8-.91-1.12-1.73-1.37Z"/>
        <path d="M651.38,22.03c-.72,1.44-1.49,2.8-2.08,4.21-1.17,2.82-1.95,5.71-2.11,8.73-.13,2.41-.02,4.81.33,7.19.32,2.23,1.1,4.39,2.06,6.48,1.68,3.67,3.9,7.13,6.45,10.39,2.39,3.04,5.44,5.64,9.06,7.72,1.27.73,2.44,1.61,3.63,2.44,1.06.74,2.1,1.48,3.32,2.06,1.09.52,2.07,1.19,3.29,1.52,1.32.35,2.63.72,3.94,1.08,1.22.33,2.44.66,3.79,1.03-.52.49-.94.87-1.33,1.27-1.2,1.25-2.43,2.48-3.57,3.76-1.41,1.59-2.6,3.3-3.46,5.15-.86,1.86-1.67,3.74-2.45,5.63-1.12,2.7-1.87,5.48-2.02,8.35-.12,2.37-.23,4.75-.16,7.13.04,1.36.34,2.74.72,4.07.63,2.24,1.33,4.48,2.17,6.67.7,1.84,1.6,3.63,2.47,5.43.67,1.4,1.36,2.8,2.17,4.14,1.02,1.72,2.13,3.41,3.6,4.91,1.06,1.08,1.98,2.25,3.07,3.3.91.88,1.97,1.65,2.98,2.45.68.54,1.38,1.07,2,1.8-.87-.09-1.75-.14-2.6-.29-3.76-.66-7.53-.38-11.28,0-2.53.25-5.04.7-7.54,1.14-4.23.75-8.39,1.7-12.45,2.96-4.2,1.3-8.16,2.99-11.9,5.06-.53.29-1.08.57-1.64.82-.29.13-.62.18-.94.26-.06-.07-.11-.14-.17-.21.2-.22.37-.47.62-.65,2.24-1.63,4.11-3.54,5.88-5.52.92-1.03,2.08-1.95,2.8-3.07,1.08-1.69,2.59-3.14,3.46-4.94.84-1.73,1.49-3.5,2.16-5.27.47-1.25.59-2.53.87-3.8.2-.92.22-1.88.16-2.81-.11-1.79-.13-3.58-.4-5.36-.25-1.67-.73-3.29-1.17-4.92-.42-1.54-1.08-3.03-1.59-4.56-.98-2.98-2.74-5.65-4.62-8.27-.76-1.05-1.59-2.07-2.42-3.09-.2-.24-.49-.44-.77-.62-1.47-.97-3-1.87-4.85-2.27-1.27-.27-2.52-.61-3.81-.78-3.58-.49-7.03-.16-10.21,1.43-.03.02-.06.05-.1.06-3.52,1.01-5.24,3.5-6.74,6.05-1.32,2.24-2.39,4.59-3.38,6.94-.48,1.15-.58,2.42-.79,3.64-.16.92-.28,1.84-.34,2.76-.08,1.19-.18,2.39-.12,3.57.11,2.01.27,4.02.54,6.02.17,1.29.52,2.58.9,3.84.89,2.96,1.91,5.89,3.21,8.74,1.18,2.59,2.93,4.9,4.75,7.19,1.66,2.09,3.79,3.76,6.13,5.26.16.1.4.18.44.31.07.2.06.46-.04.65-.05.09-.44.12-.62.06-.91-.34-1.77-.78-2.69-1.08-2.64-.84-5.28-1.67-7.96-2.41-4.18-1.16-8.39-2.26-12.6-3.36-4.52-1.19-9.12-2.06-13.83-2.5-.67-.06-1.34-.15-2-.24-.07,0-.12-.08-.3-.21.57-.54,1.09-1.11,1.7-1.6,1.58-1.26,2.71-2.8,3.81-4.35,2.03-2.87,3.02-6.04,3.83-9.27.46-1.83.83-3.68,1.02-5.54.22-2.08.09-4.15-.19-6.23-.33-2.47-.76-4.92-1.67-7.29-.83-2.17-1.83-4.28-3.19-6.27-.43-.63-.8-1.3-1.14-1.97-.72-1.41-1.97-2.5-3.08-3.68-.42-.44-.85-.89-1.37-1.24-1.74-1.16-3.53-2.27-5.3-3.4-.37-.24-.76-.46-1.23-.75.27-.21.45-.37.65-.51,1.86-1.26,3.81-2.44,5.56-3.8,1.69-1.32,3.23-2.78,4.75-4.25,1.2-1.16,2.29-2.4,3.41-3.63.99-1.09,1.99-2.18,2.9-3.32,1.69-2.12,3.23-4.32,4.41-6.67,1.68-3.36,3.25-6.76,4.61-10.23.94-2.4,1.65-4.81,2.09-7.29.33-1.88.52-3.79.75-5.68.25-2.04.32-4.09-.08-6.12-.21-1.05-.58-2.08-.9-3.11-.15-.48-.37-.95-.52-1.43-.68-2.32-1.88-4.47-3.19-6.56-.69-1.11-1.59-2.12-2.44-3.23.27-.06.49-.15.71-.15,3.53.01,7.05.08,10.58.05,2.53-.02,5.05,0,7.58.07,1.56.04,3.13-.16,4.7-.18,1.37-.02,2.75.1,4.12.11,2.12.02,4.23.01,6.35-.02,1.98-.03,3.95-.05,5.93-.03,1.53.01,3.06.03,4.58.05.12,0,.23.04.38.07ZM653.12,81.24c.57-.56.54-.64-.13-1.16-2.08-1.61-4.19-3.18-6.2-4.85-1.18-.98-2.35-2.03-3.24-3.21-1.89-2.48-3.74-4.99-5.34-7.6-2.29-3.75-4.29-7.61-5.72-11.68-.64-1.84-1.24-3.67-1.56-5.57-.05-.31-.23-.65-.46-.89-.17-.17-.57-.33-.8-.28-.19.05-.39.41-.39.63.04,2.02-.22,4.02-.46,6.02-.36,3.02-1.03,5.98-2.42,8.79-1.72,3.49-3.17,7.1-5.97,10.14-1.67,1.82-3.31,3.66-5.06,5.42-.97.97-2.15,1.79-3.2,2.69-.21.18-.31.46-.58.88,1.1-.64,1.91-1.17,2.78-1.61.91-.46,1.9-.8,2.86-1.18,2.31-.93,4.71-1.54,7.17-2.01,1.73-.33,3.49-.66,5.25-.79,2.29-.17,4.6-.15,6.89.13,1.61.2,3.23.38,4.79.74,1.71.39,3.37.94,5.02,1.49,1.02.34,2.07.71,2.96,1.24,1.32.79,2.51,1.73,3.83,2.66Z"/>
        <path d="M408.13,147.62c-.66,0-1.15-.03-1.62,0-.37.03-.79-.03-.97.42-.05.13-.54.21-.82.2-.71-.02-1.32.08-1.77.6-.1.11-.33.23-.47.21-1.24-.19-2.07.54-3.01.97-1.08.5-1.41.51-2.45-.24.1-.83.87-1.38,1.41-2.01,1.96-2.26,3.55-4.67,4.47-7.38.46-1.35.94-2.69,1.33-4.05.23-.81.37-1.65.43-2.48.08-1.21.06-2.43.07-3.64.01-1.63-.53-3.18-1.12-4.7-1.25-3.21-2.81-6.32-5.31-9-1.3-1.39-2.67-2.74-4.32-3.85-.49-.33-1.09-.53-1.64-.8-.38-.19-.76-.4-1.33-.71,1.05-.53,1.89-.95,2.71-1.39,1.19-.64,2.45-1.22,3.51-1.99.85-.62,1.42-1.5,2.18-2.22,2.05-1.95,3.23-4.29,4.15-6.73.33-.88.33-1.84.5-2.77.42-2.22.14-4.39-.65-6.53-.71-1.91-1.69-3.73-2.83-5.48-.53-.82-1.2-1.54-2.08-2.15-.66-.46-1.11-1.13-1.77-1.59-.92-.66-1.85-1.32-3.05-1.65-1-.28-1.94-.72-3.1-1.16.41-.23.66-.42.96-.52,2.06-.69,3.76-1.8,5.27-3.15.98-.88,1.99-1.73,3.03-2.55,1.55-1.23,2.36-2.84,3.27-4.4,1.3-2.23,2.17-4.6,2.85-7,.7-2.49,1.31-5.02.87-7.62-.13-.78,0-1.6-.16-2.38-.4-2.11-.79-4.23-1.36-6.31-.52-1.91-1.19-3.8-1.94-5.66-.64-1.61-1.55-3.13-2.22-4.73-.93-2.21-2.5-4.1-4.24-5.86-1.33-1.34-3.02-2.43-4.55-3.62-.57-.44-1.15-.87-1.9-1.45.53-.12.81-.25,1.09-.24,2.32.02,4.65.06,6.97.09,3.38.03,6.75.07,10.13.07,3.62,0,7.23-.04,10.85-.02,2.06,0,4.13.14,6.19.14,1.82,0,3.65-.11,5.47-.13,1.74-.02,3.49.02,5.23.03,1.07,0,2.14-.01,3.21,0,.7.01,1.41.06,2.2.1-.1.13-.17.31-.31.43-2.21,1.84-3.81,4.09-5.64,6.18-1.67,1.91-2.76,4.07-3.71,6.3-1,2.34-1.8,4.73-2.48,7.14-.47,1.67-.65,3.39-.86,5.1-.15,1.28-.25,2.57-.17,3.85.09,1.26.48,2.5.66,3.76.21,1.47.68,2.87,1.25,4.26.12.3.22.62.36.92.66,1.46,1.27,2.94,2.13,4.34.71,1.15,1.54,2.23,2.34,3.32,1.46,1.97,3.12,3.84,5.07,5.5.05.04.06.12.12.23-.07.08-.13.21-.24.28-1.54.89-3.19,1.67-4.62,2.67-1.75,1.21-3.31,2.6-4.39,4.31-.77,1.21-1.7,2.34-2.14,3.69-.34,1.06-.79,2.11-1.06,3.18-.22.91-.13,1.87-.37,2.78-.34,1.31.03,2.57.42,3.77.93,2.87,2.38,5.56,4.78,7.8,1.28,1.19,2.98,1.89,4.72,2.48,1.18.4,2.4.68,3.6,1.04.17.05.41.19.41.29,0,.17-.1.41-.26.49-.35.2-.75.35-1.15.47-2.67.83-5.09,2.04-7.24,3.6-2.19,1.59-3.88,3.47-4.82,5.83-.52,1.3-1.04,2.59-1.1,3.96-.03.67-.25,1.32-.26,1.99,0,.7-.02,1.37.6,1.95.21.19.15.57.27.85.44,1.02,1.22,1.86,2.12,2.62,1.21,1.03,2.62,1.85,3.99,2.72.58.37,1.19.64,1.79.92.64.3,1.4.43,2.09.66.44.14.84.39,1.29.48.75.16,1.52.26,2.3.34,1.06.11,2.12.26,3.18.22,1.21-.04,2.41-.23,3.6-.44,1.42-.24,2.83-.57,4.34-.88.1-.17.13-.55.69-.49.17.02.37-.16.54-.28.15-.1.24-.29.4-.35,1.46-.54,2.24-1.69,3.31-2.58.06-.05.14-.11.14-.16,0-.96,1.08-1.45,1.36-2.32.27-.83.98-1.55,1.22-2.38.61-2.1,1.41-4.21,1.08-6.42-.36-2.42-1.54-4.52-3.89-6.02-1.55-.99-3.17-1.9-4.85-2.89,0-.62.24-.81,1.07-.64.69.14,1.37.4,2.07.45,1.86.13,3.72.24,5.58.23,3.02-.01,6.05-.02,9.06-.23,2.43-.17,4.85-.58,7.24-1.01,1.97-.36,3.88-.91,5.83-1.35.5-.11,1.04-.37,1.72,0-.24.22-.4.45-.63.57-1.67.83-2.73,2.15-3.77,3.45-1.78,2.23-3.11,4.68-4.1,7.21-.71,1.81-.97,3.74-1.48,5.61-.21.76.12,1.58-.43,2.29-.08.1-.05.26-.05.4.03,1.7-.05,3.41.15,5.1.13,1.13.59,2.24,1.05,3.32.59,1.4,1.2,2.8,2.02,4.11.67,1.07,1.64,2.01,2.54,3.09-1.08.31-2.16.54-3.16.92-1.36.52-2.67,1.12-3.97,1.74-.85.4-1.69.85-2.46,1.35-1.96,1.28-3.96,2.53-5.12,4.48-.45.77-1.01,1.49-1.57,2.3-.42-.2-.96-.46-1.51-.7-1.56-.65-3.11-1.3-4.69-1.91-.61-.23-1.28-.34-1.93-.49-2.28-.5-4.56-1.06-6.86-1.48-2.61-.48-5.24-.9-7.88-1.24-1.98-.25-3.99-.39-6-.49-1.76-.09-3.53-.09-5.29-.06-3.27.04-6.53.1-9.8.22-1.06.04-2.1.29-3.15.44-1.43.2-2.88.35-4.3.59-.56.09-1.07.4-1.62.54-.51.13-1.06.21-1.59.22-.64,0-1.21.02-1.25.78Z"/>
        <path d="M581.14,90.57c-1.21,1.94-2.38,3.84-3.56,5.74-1.94,3.12-3.35,6.41-4.55,9.77-.37,1.03-.38,2.15-.58,3.23-.22,1.22-.56,2.42-.69,3.64-.16,1.48-.17,2.97-.24,4.46-.05.99-.18,1.98-.12,2.96.1,1.52-.07,3.05.52,4.56.47,1.19.7,2.45,1.03,3.69.48,1.8,1.38,3.45,2.39,5.07,1.13,1.83,2.71,3.35,4.31,4.86.04.04.02.12.05.27-.27-.01-.52-.03-.77-.03-6.09-.03-12.17-.09-18.26-.07-3,0-6.01.11-9.01.28-2.33.13-4.64.42-6.97.65-1.02.1-2.05.15-3.05.32-3.06.52-6.14,1-9.16,1.66-2.74.6-5.45,1.34-8.12,2.14-3.81,1.14-7.56,2.39-11.15,3.98-1.81.8-3.63,1.61-5.48,2.43-.66-.83-1.32-1.61-1.92-2.43-1.08-1.5-2.49-2.77-3.99-3.96-1.35-1.07-3.02-1.79-4.75-2.37-.77-.26-1.57-.46-2.34-.7-.21-.06-.39-.19-.69-.34.28-.18.43-.34.63-.41,1.63-.5,2.51-1.66,3.49-2.75,1.7-1.92,2.48-4.16,3.22-6.42,1.14-3.51,1.16-7.08.71-10.66-.19-1.54-.91-2.98-1.62-4.41-.98-1.97-2.05-3.91-3.53-5.65-1.83-2.16-4.24-3.81-7-5.09-.38-.17-.82-.24-1.21-.36-.19-.46-.08-.78.43-1.02.72-.35,1.43-.73,2.12-1.13,2.82-1.65,5.11-3.76,6.94-6.17,1.58-2.08,2.82-4.34,3.42-6.8.32-1.31.8-2.59.99-3.91.3-2.06.2-4.13-.35-6.18-.53-1.95-.93-3.93-1.52-5.88-.42-1.39-1.07-2.73-1.96-3.97-.53-.73-1.01-1.49-1.52-2.23-.91-1.32-1.83-2.66-3.13-3.71-1.46-1.18-3.23-2.01-5.15-2.59-.66-.2-1.28-.51-2.04-.82.31-.33.52-.56.73-.78,1.81-1.86,3.81-3.62,5.36-5.62,1.21-1.57,2.46-3.2,2.85-5.15.19-.94.71-1.84.98-2.78.47-1.65,1.08-3.31,1.21-4.99.13-1.61-.24-3.25-.46-4.87-.15-1.12-.31-2.26-.68-3.34-.64-1.88-.96-3.86-2.16-5.56-.75-1.07-1.76-2.02-2.71-2.98-.6-.61-1.29-1.15-1.93-1.73.03-.07.06-.14.09-.21,12.39-.03,24.78-.07,37.3-.1-.08.28-.06.48-.17.56-.71.54-1.01,1.28-1.37,1.98-1.56,3.09-3.05,6.21-3.81,9.51-.35,1.5-.44,3.06-.44,4.59,0,2.72.62,5.39,1.62,7.97.5,1.29,1.28,2.52,1.99,3.74.57.98,1.19,1.95,1.87,2.88,1.27,1.72,3.22,2.84,5.16,4.12-.38.37-.75.74-1.13,1.11-.75.73-1.54,1.44-2.25,2.2-2.9,3.11-4.44,6.71-5.29,10.55-.56,2.51-1.04,5.03-1.04,7.59,0,2.61.31,5.2.87,7.78.5,2.3,1.44,4.47,2.53,6.58,1.26,2.43,2.87,4.73,5.71,6.15.81.41,1.66.77,2.47,1.14-.93.83-1.79,1.62-2.66,2.4-1.29,1.15-2.35,2.41-3.03,3.9-.45.99-1.03,1.95-1.43,2.95-.86,2.15-1.34,4.44-.74,6.62.75,2.74,2.16,5.32,4.7,7.3,1.47,1.15,3.26,1.88,5.04,2.6,1.84.75,3.86.96,5.84,1.2.98.12,2.02-.08,3.03-.13.08,0,.16-.03.23-.03,3.55.07,6.17-1.45,8.58-3.44,1.39-1.14,2.19-2.56,3.12-3.94.8-1.19,1.15-2.48,1.43-3.78.15-.72-.04-1.52-.26-2.24-.6-1.94-1.46-3.82-2.82-5.48-1.1-1.34-2.44-2.54-3.93-3.57-1.55-1.07-3.3-1.91-5.36-2.69.57-.2.96-.4,1.38-.48,2.38-.49,4.78-.9,7.14-1.45,2.32-.53,4.59-1.2,6.73-2.15.87-.39,1.8-.68,2.73-.98,3.79-1.23,7.41-2.76,10.94-4.44,1.63-.77,3.25-1.54,4.85-2.34.57-.28,1.01-.34,1.34.17Z"/>
        <path d="M330.06,40.27c.09-.75.58-1.19,1.41-1.44,2.52-.77,4.5-2.21,6.38-3.76,1.45-1.2,2.63-2.57,3.85-3.92.83-.93,1.75-1.79,2.45-2.81,1.37-2,2.79-3.97,3.76-6.13.48-1.07.67-2.24,1.01-3.35.33-1.06.76-2.1,1.03-3.16.68-2.66,1.68-5.27,1.99-8,.21-1.86.32-3.73.48-5.59.06-.67.13-1.33.21-2.1h1.86c.05.55.17,1.08.14,1.6-.14,1.85.24,3.67.51,5.49.23,1.55.6,3.1,1.05,4.61.38,1.28.82,2.56,1.63,3.72.24.34.34.75.55,1.11,1.1,1.94,2.6,3.66,4.13,5.36,1.29,1.44,2.52,2.91,3.74,4.38.91,1.1,2.04,2.04,3.21,2.93,1.74,1.3,3.46,2.64,5.35,3.76,1.36.81,2.99,1.31,4.51,1.91.7.28,1.48.43,2.18.71,1.51.62,3.13.82,4.76,1.03.37.05.66.08.62.42-.02.18-.21.44-.4.5-3.74,1.19-6.85,3.24-9.96,5.25-1.4.9-2.78,1.9-3.89,3.04-1.36,1.38-2.54,2.91-3.6,4.47-1.01,1.5-1.79,3.12-2.6,4.71-.26.51-.35,1.1-.46,1.66-.28,1.41-.84,2.78-.59,4.26.42,2.58.84,5.17,2.4,7.47,1.01,1.5,2.08,2.98,3.69,4.11,2.23,1.57,4.74,2.67,7.49,3.47,1.25.37,2.49.55,3.77.55.15.6-.33.76-.72.85-1.71.39-2.95,1.5-4.55,2.09-.78.29-1.7.66-2.12,1.44-.03.05-.11.1-.18.12-1.17.45-1.82,1.37-2.61,2.13-.4.38-.93.72-1.21,1.15-.96,1.48-1.83,3-2.7,4.52-.68,1.17-.73,2.47-.89,3.73-.08.64.09,1.31.19,1.96.18,1.2.29,2.41.61,3.57.19.68.74,1.29,1.14,1.92.79,1.22,1.47,2.51,2.4,3.64,1.59,1.92,3.49,3.61,6,4.75.97.44,1.87.99,2.8,1.5,1.56.85,3.12,1.7,5.19,2.15-.51.25-.81.45-1.15.55-2.51.74-4.61,2.05-6.65,3.42-.93.63-1.63,1.52-2.39,2.32-1.62,1.72-3.2,3.46-4.58,5.32-.89,1.19-1.47,2.5-1.95,3.85-.49,1.38-1.07,2.73-1.63,4.08-.53,1.3-1,2.6-1.18,3.97-.08.63-.35,1.24-.46,1.86-.22,1.19-.38,2.39-.57,3.58-.12.78-.3,1.56-.37,2.35-.14,1.53-.28,3.06-.3,4.59-.01.71-.19,1.3-.86,1.85h-1.24c-.41-1.88-.77-3.73-.88-5.63-.07-1.28-.65-2.53-.93-3.8-.38-1.71-1.24-3.28-1.9-4.91-.29-.71-.8-1.37-1.27-2.02-1.05-1.46-2.2-2.87-3.18-4.35-1.21-1.83-2.6-3.55-4.07-5.23-1.58-1.81-3.43-3.43-5.48-4.88-.47-.33-1.06-.54-1.59-.81-2.16-1.11-4.31-2.22-6.46-3.33-.56-.29-.53-.71.09-.97,2.7-1.14,4.99-2.71,6.76-4.75,1.01-1.16,1.67-2.54,2.56-3.78,1.27-1.77,1.82-3.69,1.96-5.73.11-1.59.35-3.18.42-4.77.03-.58-.23-1.18-.42-1.76-.36-1.11-.73-2.22-1.17-3.31-1.1-2.69-2.32-5.34-4.71-7.45-1.1-.97-2.31-1.81-3.79-2.35-.49-.18-.92-.47-1.39-.7-1.58-.76-3.33-1.06-5.09-1.33-.5-.08-1.24-.09-1.28-.71-.04-.61.57-.81,1.18-.96,2.05-.53,4.02-1.26,5.83-2.22,1.61-.85,3.17-1.77,4.65-2.77,1.44-.97,2.38-2.31,3.44-3.56,1.5-1.78,2.28-3.83,2.88-5.87.58-1.98,1.39-3.97,1.14-6.11-.18-1.6-.61-3.11-1.23-4.63-.51-1.24-1.21-2.37-2.08-3.41-.73-.88-1.74-1.6-2.66-2.37-.59-.49-1.33-.88-1.82-1.43-.57-.64-1.31-.94-2.15-1.18-.92-.27-1.62-.9-2.6-1.07-1.23-.22-2.44-.52-3.67-.75-1.25-.23-2.52-.42-3.78-.62Z"/>
      </g>
    </g>
  </g>
</svg>